<svg xmlns="http://www.w3.org/2000/svg" width="560" height="293" viewBox="0 0 560 293"><g transform="translate(217 -237)"><rect width="185" height="293" transform="translate(-217 237)" fill="#fff"/><g transform="translate(-217 300)" fill="none" stroke="#132a1c" stroke-width="7"><rect width="182" height="230" rx="40" stroke="none"/><rect x="3.5" y="3.5" width="175" height="223" rx="36.5" fill="none"/></g><g transform="translate(16.835)"><rect width="141" height="20" rx="10" transform="translate(-212.835 241)" fill="#132a1c"/><rect width="141" height="20" rx="10" transform="translate(-212.835 264)" fill="#132a1c"/></g><g transform="translate(321.134 111)"><rect width="185" height="33" rx="11" transform="translate(-538.134 176)" fill="#fff"/><g transform="translate(-530.838 169.553)"><path d="M-684.162,65.213h131.7l19.493,26.037H-703.712Z" transform="translate(703.712 -56.004)" fill="#cb0a0a"/><g transform="translate(11.143 33.393)"><path d="M-509.367,251.743s6.561,22.864,16.409,23.049c4.638.094,11.508-5.461,16.224-23.049" transform="translate(509.367 -251.743)" fill="#cb0a0a"/><path d="M-509.367,251.743s6.561,22.864,16.409,23.049c4.638.094,11.508-5.461,16.224-23.049" transform="translate(548.162 -251.743)" fill="#cb0a0a"/><path d="M-509.367,251.743s6.561,22.864,16.409,23.049c4.638.094,11.508-5.461,16.224-23.049" transform="translate(586.957 -251.743)" fill="#cb0a0a"/><path d="M-509.367,251.743s6.561,22.864,16.409,23.049c4.638.094,11.508-5.461,16.224-23.049" transform="translate(625.752 -251.743)" fill="#cb0a0a"/></g></g></g><g transform="translate(257.188 -204)"><rect width="514" height="111" transform="translate(-428.188 557)" fill="#fff"/><text transform="translate(-428.188 647)" fill="#132a1c" font-size="110" font-family="GiddyupStd, Giddyup Std"><tspan x="0" y="0" fill="#cb0a0a">Disko</tspan><tspan y="0" fill="#000"> </tspan><tspan y="0" fill="#132a1c">Zimnica</tspan></text></g></g></svg>